999
dxfrw 0.5.10
0
SECTION
2
HEADER
9
$ACADVER
1
AC1021
9
$HANDSEED
5
20000
9
$DWGCODEPAGE
3
ANSI_1252
9
$INSBASE
10
0
20
0
30
0
9
$EXTMIN
10
-6
20
-1
30
0
9
$EXTMAX
10
11.5
20
1.5
30
0
9
$LIMMIN
10
0
20
0
9
$LIMMAX
10
420
20
297
9
$ORTHOMODE
70
0
9
$LTSCALE
40
1
9
$TEXTSTYLE
7
STANDARD
9
$CLAYER
8

9
$DIMASZ
40
2.5
9
$DIMLFAC
40
1
9
$DIMSCALE
40
1
9
$DIMEXO
40
0.625
9
$DIMEXE
40
1.25
9
$DIMTXT
40
2.5
9
$DIMTSZ
40
0
9
$DIMAUNIT
70
0
9
$DIMADEC
70
0
9
$DIMLUNIT
70
2
9
$DIMSTYLE
2
Standard
9
$DIMGAP
40
0.625
9
$DIMTIH
70
0
9
$LUNITS
70
2
9
$LUPREC
70
4
9
$AUNITS
70
0
9
$AUPREC
70
2
9
$SPLINESEGS
70
8
9
$GRIDMODE
70
1
9
$SNAPSTYLE
70
0
9
$PINSBASE
10
0
20
0
30
0
9
$PLIMMIN
10
0
20
0
9
$PLIMMAX
10
210
20
297
9
$INSUNITS
70
1
9
$PSVPSCALE
40
1
0
ENDSEC
0
SECTION
2
CLASSES
0
ENDSEC
0
SECTION
2
TABLES
0
TABLE
2
VPORT
5
8
330
0
100
AcDbSymbolTable
70
1
0
VPORT
5
31
330
2
100
AcDbSymbolTableRecord
100
AcDbViewportTableRecord
2
*ACTIVE
70
0
10
0
20
0
11
1
21
1
12
4.27028007298
22
3.54031766734
13
0
23
0
14
10
24
10
15
10
25
10
16
0
26
0
36
1
17
0
27
0
37
0
40
11.1246270619
41
1.81102362205
42
50
43
0
44
0
50
0
51
0
71
0
72
100
73
1
74
3
75
0
76
1
77
0
78
0
281
0
65
1
110
0
120
0
130
0
111
1
121
0
131
0
112
0
122
1
132
0
79
0
146
0
348
10020
60
7
61
5
292
1
282
1
141
0
142
0
63
250
421
3358443
0
ENDTAB
0
TABLE
2
LTYPE
5
5
330
0
100
AcDbSymbolTable
70
4
0
LTYPE
5
14
330
5
100
AcDbSymbolTableRecord
100
AcDbLinetypeTableRecord
2
ByBlock
70
0
3

72
65
73
0
40
0
0
LTYPE
5
15
330
5
100
AcDbSymbolTableRecord
100
AcDbLinetypeTableRecord
2
ByLayer
70
0
3

72
65
73
0
40
0
0
LTYPE
5
16
330
5
100
AcDbSymbolTableRecord
100
AcDbLinetypeTableRecord
2
Continuous
70
0
3
Solid line
72
65
73
0
40
0
0
LTYPE
5
32
330
5
100
AcDbSymbolTableRecord
100
AcDbLinetypeTableRecord
2
DOT
70
0
3
Dot . . . . . . . . . . . . . . . . . . . . . .
72
65
73
2
40
6.35
49
0
74
0
49
-6.35
74
0
0
LTYPE
5
33
330
5
100
AcDbSymbolTableRecord
100
AcDbLinetypeTableRecord
2
DOT2
70
0
3
Dot (.5x) .....................................
72
65
73
2
40
3.175
49
0
74
0
49
-3.175
74
0
0
LTYPE
5
34
330
5
100
AcDbSymbolTableRecord
100
AcDbLinetypeTableRecord
2
DOTX2
70
0
3
Dot (2x) .  .  .  .  .  .  .  .  .  .  .  .  .
72
65
73
2
40
12.7
49
0
74
0
49
-12.7
74
0
0
LTYPE
5
35
330
5
100
AcDbSymbolTableRecord
100
AcDbLinetypeTableRecord
2
DASHED
70
0
3
Dot . . . . . . . . . . . . . . . . . . . . . .
72
65
73
2
40
19.05
49
12.7
74
0
49
-6.35
74
0
0
LTYPE
5
36
330
5
100
AcDbSymbolTableRecord
100
AcDbLinetypeTableRecord
2
DASHED2
70
0
3
Dashed (.5x) _ _ _ _ _ _ _ _ _ _ _ _ _ _ _ _ _
72
65
73
2
40
9.525
49
6.35
74
0
49
-3.175
74
0
0
LTYPE
5
37
330
5
100
AcDbSymbolTableRecord
100
AcDbLinetypeTableRecord
2
DASHEDX2
70
0
3
Dashed (2x) ____  ____  ____  ____  ____  ___
72
65
73
2
40
38.1
49
25.4
74
0
49
-12.7
74
0
0
LTYPE
5
38
330
5
100
AcDbSymbolTableRecord
100
AcDbLinetypeTableRecord
2
DASHDOT
70
0
3
Dash dot __ . __ . __ . __ . __ . __ . __ . __
72
65
73
4
40
25.4
49
12.7
74
0
49
-6.35
74
0
49
0
74
0
49
-6.35
74
0
0
LTYPE
5
39
330
5
100
AcDbSymbolTableRecord
100
AcDbLinetypeTableRecord
2
DASHDOT2
70
0
3
Dash dot (.5x) _._._._._._._._._._._._._._._.
72
65
73
4
40
12.7
49
6.35
74
0
49
-3.175
74
0
49
0
74
0
49
-3.175
74
0
0
LTYPE
5
3A
330
5
100
AcDbSymbolTableRecord
100
AcDbLinetypeTableRecord
2
DASHDOTX2
70
0
3
Dash dot (2x) ____  .  ____  .  ____  .  ___
72
65
73
4
40
50.8
49
25.4
74
0
49
-12.7
74
0
49
0
74
0
49
-12.7
74
0
0
LTYPE
5
3B
330
5
100
AcDbSymbolTableRecord
100
AcDbLinetypeTableRecord
2
DIVIDE
70
0
3
Divide ____ . . ____ . . ____ . . ____ . . ____
72
65
73
6
40
31.75
49
12.7
74
0
49
-6.35
74
0
49
0
74
0
49
-6.35
74
0
49
0
74
0
49
-6.35
74
0
0
LTYPE
5
3C
330
5
100
AcDbSymbolTableRecord
100
AcDbLinetypeTableRecord
2
DIVIDE2
70
0
3
Divide (.5x) __..__..__..__..__..__..__..__.._
72
65
73
6
40
15.875
49
6.35
74
0
49
-3.175
74
0
49
0
74
0
49
-3.175
74
0
49
0
74
0
49
-3.175
74
0
0
LTYPE
5
3D
330
5
100
AcDbSymbolTableRecord
100
AcDbLinetypeTableRecord
2
DIVIDEX2
70
0
3
Divide (2x) ________  .  .  ________  .  .  _
72
65
73
6
40
63.5
49
25.4
74
0
49
-12.7
74
0
49
0
74
0
49
-12.7
74
0
49
0
74
0
49
-12.7
74
0
0
LTYPE
5
3E
330
5
100
AcDbSymbolTableRecord
100
AcDbLinetypeTableRecord
2
BORDER
70
0
3
Border __ __ . __ __ . __ __ . __ __ . __ __ .
72
65
73
6
40
44.45
49
12.7
74
0
49
-6.35
74
0
49
12.7
74
0
49
-6.35
74
0
49
0
74
0
49
-6.35
74
0
0
LTYPE
5
3F
330
5
100
AcDbSymbolTableRecord
100
AcDbLinetypeTableRecord
2
BORDER2
70
0
3
Border (.5x) __.__.__.__.__.__.__.__.__.__.__.
72
65
73
6
40
22.225
49
6.35
74
0
49
-3.175
74
0
49
6.35
74
0
49
-3.175
74
0
49
0
74
0
49
-3.175
74
0
0
LTYPE
5
40
330
5
100
AcDbSymbolTableRecord
100
AcDbLinetypeTableRecord
2
BORDERX2
70
0
3
Border (2x) ____  ____  .  ____  ____  .  ___
72
65
73
6
40
88.9
49
25.4
74
0
49
-12.7
74
0
49
25.4
74
0
49
-12.7
74
0
49
0
74
0
49
-12.7
74
0
0
LTYPE
5
41
330
5
100
AcDbSymbolTableRecord
100
AcDbLinetypeTableRecord
2
CENTER
70
0
3
Center ____ _ ____ _ ____ _ ____ _ ____ _ ____
72
65
73
4
40
50.8
49
31.75
74
0
49
-6.35
74
0
49
6.35
74
0
49
-6.35
74
0
0
LTYPE
5
42
330
5
100
AcDbSymbolTableRecord
100
AcDbLinetypeTableRecord
2
CENTER2
70
0
3
Center (.5x) ___ _ ___ _ ___ _ ___ _ ___ _ ___
72
65
73
4
40
28.575
49
19.05
74
0
49
-3.175
74
0
49
3.175
74
0
49
-3.175
74
0
0
LTYPE
5
43
330
5
100
AcDbSymbolTableRecord
100
AcDbLinetypeTableRecord
2
CENTERX2
70
0
3
Center (2x) ________  __  ________  __  _____
72
65
73
4
40
101.6
49
63.5
74
0
49
-12.7
74
0
49
12.7
74
0
49
-12.7
74
0
0
ENDTAB
0
TABLE
2
LAYER
5
2
330
0
100
AcDbSymbolTable
70
1
0
LAYER
5
10
330
2
100
AcDbSymbolTableRecord
100
AcDbLayerTableRecord
2
0
70
0
62
7
6
CONTINUOUS
370
-3
390
F
0
LAYER
5
44
330
2
100
AcDbSymbolTableRecord
100
AcDbLayerTableRecord
2
4-40 tap holes
70
0
62
2
6
CONTINUOUS
370
-3
390
F
0
LAYER
5
45
330
2
100
AcDbSymbolTableRecord
100
AcDbLayerTableRecord
2
boundary
70
0
62
3
6
CONTINUOUS
370
-3
390
F
0
LAYER
5
46
330
2
100
AcDbSymbolTableRecord
100
AcDbLayerTableRecord
2
visualization
70
0
62
8
6
CONTINUOUS
370
-3
390
F
0
LAYER
5
47
330
2
100
AcDbSymbolTableRecord
100
AcDbLayerTableRecord
2
resistor pocket
70
0
62
40
6
CONTINUOUS
370
-3
390
F
0
LAYER
5
48
330
2
100
AcDbSymbolTableRecord
100
AcDbLayerTableRecord
2
connector pocket
70
0
62
211
6
CONTINUOUS
370
-3
390
F
0
LAYER
5
49
330
2
100
AcDbSymbolTableRecord
100
AcDbLayerTableRecord
2
filter outer pocket
70
0
62
4
6
CONTINUOUS
370
-3
390
F
0
LAYER
5
4A
330
2
100
AcDbSymbolTableRecord
100
AcDbLayerTableRecord
2
filter inner pocket
70
0
62
5
6
CONTINUOUS
370
-3
390
F
0
LAYER
5
4B
330
2
100
AcDbSymbolTableRecord
100
AcDbLayerTableRecord
2
led pocket
70
0
62
6
6
CONTINUOUS
370
-3
390
F
0
LAYER
5
4C
330
2
100
AcDbSymbolTableRecord
100
AcDbLayerTableRecord
2

70
0
62
255
420
12648447
6
CONTINUOUS
370
-3
390
F
0
LAYER
5
4D
330
2
100
AcDbSymbolTableRecord
100
AcDbLayerTableRecord
2
mount drill
70
0
62
1
6
CONTINUOUS
370
-3
390
F
0
LAYER
5
4E
330
2
100
AcDbSymbolTableRecord
100
AcDbLayerTableRecord
2
scratch
70
1
62
7
6
CONTINUOUS
370
0
390
F
0
LAYER
5
4F
330
2
100
AcDbSymbolTableRecord
100
AcDbLayerTableRecord
2
stock
70
0
62
9
6
CONTINUOUS
370
0
390
F
0
ENDTAB
0
TABLE
2
STYLE
5
3
330
0
100
AcDbSymbolTable
70
3
0
STYLE
5
50
330
2
100
AcDbSymbolTableRecord
100
AcDbTextStyleTableRecord
2
Standard
70
0
40
0
41
1
50
0
71
0
42
1
3
txt
4

0
ENDTAB
0
TABLE
2
VIEW
5
6
330
0
100
AcDbSymbolTable
70
0
0
ENDTAB
0
TABLE
2
UCS
5
7
330
0
100
AcDbSymbolTable
70
0
0
ENDTAB
0
TABLE
2
APPID
5
9
330
0
100
AcDbSymbolTable
70
1
0
APPID
5
12
330
9
100
AcDbSymbolTableRecord
100
AcDbRegAppTableRecord
2
ACAD
70
0
0
ENDTAB
0
TABLE
2
DIMSTYLE
5
A
330
0
100
AcDbSymbolTable
70
1
100
AcDbDimStyleTable
71
1
0
DIMSTYLE
105
51
330
A
100
AcDbSymbolTableRecord
100
AcDbDimStyleTableRecord
2
Standard
70
0
40
1
41
2.5
42
0.625
43
0.38
44
1.25
45
0
46
0
47
0
48
0
140
2.5
141
0.09
142
0
143
25.4
144
1
145
0
146
1
147
0.625
148
0
71
0
72
0
73
0
74
1
75
0
76
0
77
0
78
0
79
0
170
0
171
2
172
0
173
0
174
0
175
0
176
0
177
0
178
0
179
0
271
4
272
4
273
2
274
2
275
0
276
0
277
2
278
46
279
0
280
0
281
0
282
0
283
1
284
0
285
0
286
0
288
0
289
3
340
Standard
341

371
-2
372
-2
0
ENDTAB
0
TABLE
2
BLOCK_RECORD
5
1
330
0
100
AcDbSymbolTable
70
2
0
BLOCK_RECORD
5
1F
330
1
100
AcDbSymbolTableRecord
100
AcDbBlockTableRecord
2
*Model_Space
70
0
280
1
281
0
0
BLOCK_RECORD
5
1E
330
1
100
AcDbSymbolTableRecord
100
AcDbBlockTableRecord
2
*Paper_Space
70
0
280
1
281
0
0
ENDTAB
0
ENDSEC
0
SECTION
2
BLOCKS
0
BLOCK
5
20
330
1F
100
AcDbEntity
8
0
100
AcDbBlockBegin
2
*Model_Space
70
0
10
0
20
0
30
0
3
*Model_Space
1

0
ENDBLK
5
21
330
1F
100
AcDbEntity
8
0
100
AcDbBlockEnd
0
BLOCK
5
1C
330
1B
100
AcDbEntity
8
0
100
AcDbBlockBegin
2
*Paper_Space
70
0
10
0
20
0
30
0
3
*Paper_Space
1

0
ENDBLK
5
1D
330
1F
100
AcDbEntity
8
0
100
AcDbBlockEnd
0
ENDSEC
0
SECTION
2
ENTITIES
0
LINE
5
52
100
AcDbEntity
8
scratch
6
ByLayer
62
256
370
-1
100
AcDbLine
10
0.09375
20
1.94289029309e-16
11
2.79425946813e-15
21
1.94289029309e-16
0
LINE
5
53
100
AcDbEntity
8
scratch
6
ByLayer
62
256
370
-1
100
AcDbLine
10
2.8e-15
20
0.09375
11
2.79425946813e-15
21
1.94289029309e-16
0
LINE
5
54
100
AcDbEntity
8
scratch
6
ByLayer
62
256
370
-1
100
AcDbLine
10
1.8
20
0.09375
11
2.3
21
0.09375
0
LINE
5
55
100
AcDbEntity
8
scratch
6
ByLayer
62
256
370
-1
100
AcDbLine
10
2.39375
20
-2.77555756156e-17
11
2.3
21
-2.77555756156e-17
0
LINE
5
56
100
AcDbEntity
8
scratch
6
ByLayer
62
256
370
-1
100
AcDbLine
10
2.3
20
0.09375
11
2.3
21
-2.77555756156e-17
0
LINE
5
57
100
AcDbEntity
8
scratch
6
ByLayer
62
256
370
-1
100
AcDbLine
10
4.1
20
0.09375
11
4.6
21
0.09375
0
LINE
5
58
100
AcDbEntity
8
scratch
6
ByLayer
62
256
370
-1
100
AcDbLine
10
4.69375
20
1.66533453694e-16
11
4.6
21
1.66533453694e-16
0
LINE
5
59
100
AcDbEntity
8
scratch
6
ByLayer
62
256
370
-1
100
AcDbLine
10
4.6
20
0.09375
11
4.6
21
1.66533453694e-16
0
LINE
5
5A
100
AcDbEntity
8
scratch
6
ByLayer
62
256
370
-1
100
AcDbLine
10
6.4
20
0.09375
11
6.9
21
0.09375
0
LINE
5
5B
100
AcDbEntity
8
scratch
6
ByLayer
62
256
370
-1
100
AcDbLine
10
6.99375
20
-5.55111512313e-17
11
6.9
21
-5.55111512313e-17
0
LINE
5
5C
100
AcDbEntity
8
scratch
6
ByLayer
62
256
370
-1
100
AcDbLine
10
6.9
20
0.09375
11
6.9
21
-5.55111512313e-17
0
LINE
5
5D
100
AcDbEntity
8
scratch
6
ByLayer
62
256
370
-1
100
AcDbLine
10
8.7
20
0.09375
11
9.2
21
0.09375
0
LINE
5
5E
100
AcDbEntity
8
scratch
6
ByLayer
62
256
370
-1
100
AcDbLine
10
9.29375
20
5.55111512313e-17
11
9.2
21
5.55111512313e-17
0
LINE
5
5F
100
AcDbEntity
8
scratch
6
ByLayer
62
256
370
-1
100
AcDbLine
10
9.2
20
0.09375
11
9.2
21
5.55111512313e-17
0
LINE
5
60
100
AcDbEntity
8
scratch
6
ByLayer
62
256
370
-1
100
AcDbLine
10
11
20
0.09375
11
11.5
21
0.09375
0
CIRCLE
5
61
100
AcDbEntity
8
4-40 tap holes
6
ByLayer
62
256
370
-1
100
AcDbCircle
10
-3.7999997
20
0.400155
40
0.0445
0
CIRCLE
5
62
100
AcDbEntity
8
4-40 tap holes
6
ByLayer
62
256
370
-1
100
AcDbCircle
10
-3.800037
20
-0.399884
40
0.0445
0
CIRCLE
5
63
100
AcDbEntity
8
4-40 tap holes
6
ByLayer
62
256
370
-1
100
AcDbCircle
10
-5.40003
20
0.400171
40
0.0445
0
CIRCLE
5
64
100
AcDbEntity
8
4-40 tap holes
6
ByLayer
62
256
370
-1
100
AcDbCircle
10
-5.40003
20
-0.399895
40
0.0445
0
LINE
5
65
100
AcDbEntity
8
resistor pocket
6
ByLayer
62
256
370
-1
100
AcDbLine
10
-4
20
0.26
11
-4
21
-0.28
0
LINE
5
66
100
AcDbEntity
8
resistor pocket
6
ByLayer
62
256
370
-1
100
AcDbLine
10
-3.77
20
-0.01
11
-4.23
21
-0.01
0
LINE
5
67
100
AcDbEntity
8
connector pocket
6
ByLayer
62
256
370
-1
100
AcDbLine
10
-5.05
20
0.02
11
-5.44
21
0.02
0
LINE
5
68
100
AcDbEntity
8
connector pocket
6
ByLayer
62
256
370
-1
100
AcDbLine
10
-5.245
20
0.3
11
-5.245
21
-0.26
0
CIRCLE
5
69
100
AcDbEntity
8
filter outer pocket
6
ByLayer
62
256
370
-1
100
AcDbCircle
10
-4.602022
20
0.152595
40
0.25
0
CIRCLE
5
6A
100
AcDbEntity
8
filter inner pocket
6
ByLayer
62
256
370
-1
100
AcDbCircle
10
-4.60202
20
0.152602
40
0.18
0
CIRCLE
5
6B
100
AcDbEntity
8
led pocket
6
ByLayer
62
256
370
-1
100
AcDbCircle
10
-4.602026
20
-0.249828
40
0.12
0
ARC
5
6C
100
AcDbEntity
8
visualization
6
ByLayer
62
256
370
-1
100
AcDbCircle
10
-5.34625
20
0.20625
40
0.09375
100
AcDbArc
50
90
51
180
0
LINE
5
6D
100
AcDbEntity
8
visualization
6
ByLayer
62
256
370
-1
100
AcDbLine
10
-5.34625
20
0.3
11
-5.14375
21
0.3
0
ARC
5
6E
100
AcDbEntity
8
visualization
6
ByLayer
62
256
370
-1
100
AcDbCircle
10
-5.14375
20
0.20625
40
0.09375
100
AcDbArc
50
0
51
90
0
LINE
5
6F
100
AcDbEntity
8
visualization
6
ByLayer
62
256
370
-1
100
AcDbLine
10
-5.05
20
-0.16625
11
-5.05
21
0.20625
0
ARC
5
70
100
AcDbEntity
8
visualization
6
ByLayer
62
256
370
-1
100
AcDbCircle
10
-5.14375
20
-0.16625
40
0.09375
100
AcDbArc
50
270
51
0
0
LINE
5
71
100
AcDbEntity
8
visualization
6
ByLayer
62
256
370
-1
100
AcDbLine
10
-5.34625
20
-0.26
11
-5.14375
21
-0.26
0
LINE
5
72
100
AcDbEntity
8
visualization
6
ByLayer
62
256
370
-1
100
AcDbLine
10
-5.44
20
0.20625
11
-5.44
21
-0.16625
0
ARC
5
73
100
AcDbEntity
8
visualization
6
ByLayer
62
256
370
-1
100
AcDbCircle
10
-5.34625
20
-0.16625
40
0.09375
100
AcDbArc
50
180
51
270
0
ARC
5
74
100
AcDbEntity
8
visualization
6
ByLayer
62
256
370
-1
100
AcDbCircle
10
-4.13625
20
0.16625
40
0.09375
100
AcDbArc
50
90
51
180
0
LINE
5
75
100
AcDbEntity
8
visualization
6
ByLayer
62
256
370
-1
100
AcDbLine
10
-4.13625
20
0.26
11
-3.86375
21
0.26
0
ARC
5
76
100
AcDbEntity
8
visualization
6
ByLayer
62
256
370
-1
100
AcDbCircle
10
-3.86375
20
0.16625
40
0.09375
100
AcDbArc
50
0
51
90
0
LINE
5
77
100
AcDbEntity
8
visualization
6
ByLayer
62
256
370
-1
100
AcDbLine
10
-4.23
20
0.16625
11
-4.23
21
-0.18625
0
ARC
5
78
100
AcDbEntity
8
visualization
6
ByLayer
62
256
370
-1
100
AcDbCircle
10
-4.13625
20
-0.18625
40
0.09375
100
AcDbArc
50
180
51
270
0
LINE
5
79
100
AcDbEntity
8
visualization
6
ByLayer
62
256
370
-1
100
AcDbLine
10
-4.13625
20
-0.28
11
-3.86375
21
-0.28
0
LINE
5
7A
100
AcDbEntity
8
visualization
6
ByLayer
62
256
370
-1
100
AcDbLine
10
-3.77
20
0.16625
11
-3.77
21
-0.18625
0
ARC
5
7B
100
AcDbEntity
8
visualization
6
ByLayer
62
256
370
-1
100
AcDbCircle
10
-3.86375
20
-0.18625
40
0.09375
100
AcDbArc
50
270
51
360
0
ARC
5
7C
100
AcDbEntity
8
boundary
6
ByLayer
62
256
370
-1
100
AcDbCircle
10
-5.40625
20
0.40625
40
0.09375
100
AcDbArc
50
90
51
180
0
LINE
5
7D
100
AcDbEntity
8
boundary
6
ByLayer
62
256
370
-1
100
AcDbLine
10
-5.5
20
0.40625
11
-5.5
21
-0.40625
0
ARC
5
7E
100
AcDbEntity
8
boundary
6
ByLayer
62
256
370
-1
100
AcDbCircle
10
-5.40625
20
-0.40625
40
0.09375
100
AcDbArc
50
180
51
270
0
LINE
5
7F
100
AcDbEntity
8
boundary
6
ByLayer
62
256
370
-1
100
AcDbLine
10
-3.79375
20
-0.5
11
-5.40625
21
-0.5
0
ARC
5
80
100
AcDbEntity
8
boundary
6
ByLayer
62
256
370
-1
100
AcDbCircle
10
-3.79375
20
-0.40625
40
0.09375
100
AcDbArc
50
270
51
360
0
LINE
5
81
100
AcDbEntity
8
boundary
6
ByLayer
62
256
370
-1
100
AcDbLine
10
-3.7
20
0.40625
11
-3.7
21
-0.40625
0
LINE
5
82
100
AcDbEntity
8
boundary
6
ByLayer
62
256
370
-1
100
AcDbLine
10
-3.79375
20
0.5
11
-5.40625
21
0.5
0
ARC
5
83
100
AcDbEntity
8
boundary
6
ByLayer
62
256
370
-1
100
AcDbCircle
10
-3.79375
20
0.40625
40
0.09375
100
AcDbArc
50
0
51
90
0
CIRCLE
5
84
100
AcDbEntity
8
visualization
6
ByLayer
62
256
370
-1
100
AcDbCircle
10
-4.94
20
-0.3
40
0.15
0
CIRCLE
5
85
100
AcDbEntity
8
visualization
6
ByLayer
62
256
370
-1
100
AcDbCircle
10
-4
20
-0.01
40
0.15
0
CIRCLE
5
86
100
AcDbEntity
8
mount drill
6
ByLayer
62
256
370
-1
100
AcDbCircle
10
-4
20
-0.01
40
0.085
0
CIRCLE
5
87
100
AcDbEntity
8
mount drill
6
ByLayer
62
256
370
-1
100
AcDbCircle
10
-4.94
20
-0.3
40
0.085
0
LINE
5
88
100
AcDbEntity
8
stock
6
ByLayer
62
256
370
-1
100
AcDbLine
10
-6
20
-1
11
6
21
-1
0
LINE
5
89
100
AcDbEntity
8
stock
6
ByLayer
62
256
370
-1
100
AcDbLine
10
6
20
-1
11
6
21
1
0
LINE
5
8A
100
AcDbEntity
8
stock
6
ByLayer
62
256
370
-1
100
AcDbLine
10
6
20
1
11
-6
21
1
0
LINE
5
8B
100
AcDbEntity
8
stock
6
ByLayer
62
256
370
-1
100
AcDbLine
10
-6
20
1
11
-6
21
-1
0
CIRCLE
5
8C
100
AcDbEntity
8
4-40 tap holes
6
ByLayer
62
256
370
-1
100
AcDbCircle
10
-1.4999997
20
0.400155
40
0.0445
0
CIRCLE
5
8D
100
AcDbEntity
8
4-40 tap holes
6
ByLayer
62
256
370
-1
100
AcDbCircle
10
-1.500037
20
-0.399884
40
0.0445
0
CIRCLE
5
8E
100
AcDbEntity
8
4-40 tap holes
6
ByLayer
62
256
370
-1
100
AcDbCircle
10
-3.10003
20
0.400171
40
0.0445
0
CIRCLE
5
8F
100
AcDbEntity
8
4-40 tap holes
6
ByLayer
62
256
370
-1
100
AcDbCircle
10
-3.10003
20
-0.399895
40
0.0445
0
LINE
5
90
100
AcDbEntity
8
resistor pocket
6
ByLayer
62
256
370
-1
100
AcDbLine
10
-1.7
20
0.26
11
-1.7
21
-0.28
0
LINE
5
91
100
AcDbEntity
8
resistor pocket
6
ByLayer
62
256
370
-1
100
AcDbLine
10
-1.47
20
-0.01
11
-1.93
21
-0.01
0
LINE
5
92
100
AcDbEntity
8
connector pocket
6
ByLayer
62
256
370
-1
100
AcDbLine
10
-2.75
20
0.02
11
-3.14
21
0.02
0
LINE
5
93
100
AcDbEntity
8
connector pocket
6
ByLayer
62
256
370
-1
100
AcDbLine
10
-2.945
20
0.3
11
-2.945
21
-0.26
0
CIRCLE
5
94
100
AcDbEntity
8
filter outer pocket
6
ByLayer
62
256
370
-1
100
AcDbCircle
10
-2.302022
20
0.152595
40
0.25
0
CIRCLE
5
95
100
AcDbEntity
8
filter inner pocket
6
ByLayer
62
256
370
-1
100
AcDbCircle
10
-2.30202
20
0.152602
40
0.18
0
CIRCLE
5
96
100
AcDbEntity
8
led pocket
6
ByLayer
62
256
370
-1
100
AcDbCircle
10
-2.302026
20
-0.249828
40
0.12
0
ARC
5
97
100
AcDbEntity
8
visualization
6
ByLayer
62
256
370
-1
100
AcDbCircle
10
-3.04625
20
0.20625
40
0.09375
100
AcDbArc
50
90
51
180
0
LINE
5
98
100
AcDbEntity
8
visualization
6
ByLayer
62
256
370
-1
100
AcDbLine
10
-3.04625
20
0.3
11
-2.84375
21
0.3
0
ARC
5
99
100
AcDbEntity
8
visualization
6
ByLayer
62
256
370
-1
100
AcDbCircle
10
-2.84375
20
0.20625
40
0.09375
100
AcDbArc
50
0
51
90
0
LINE
5
9A
100
AcDbEntity
8
visualization
6
ByLayer
62
256
370
-1
100
AcDbLine
10
-2.75
20
-0.16625
11
-2.75
21
0.20625
0
ARC
5
9B
100
AcDbEntity
8
visualization
6
ByLayer
62
256
370
-1
100
AcDbCircle
10
-2.84375
20
-0.16625
40
0.09375
100
AcDbArc
50
270
51
0
0
LINE
5
9C
100
AcDbEntity
8
visualization
6
ByLayer
62
256
370
-1
100
AcDbLine
10
-3.04625
20
-0.26
11
-2.84375
21
-0.26
0
LINE
5
9D
100
AcDbEntity
8
visualization
6
ByLayer
62
256
370
-1
100
AcDbLine
10
-3.14
20
0.20625
11
-3.14
21
-0.16625
0
ARC
5
9E
100
AcDbEntity
8
visualization
6
ByLayer
62
256
370
-1
100
AcDbCircle
10
-3.04625
20
-0.16625
40
0.09375
100
AcDbArc
50
180
51
270
0
ARC
5
9F
100
AcDbEntity
8
visualization
6
ByLayer
62
256
370
-1
100
AcDbCircle
10
-1.83625
20
0.16625
40
0.09375
100
AcDbArc
50
90
51
180
0
LINE
5
A0
100
AcDbEntity
8
visualization
6
ByLayer
62
256
370
-1
100
AcDbLine
10
-1.83625
20
0.26
11
-1.56375
21
0.26
0
ARC
5
A1
100
AcDbEntity
8
visualization
6
ByLayer
62
256
370
-1
100
AcDbCircle
10
-1.56375
20
0.16625
40
0.09375
100
AcDbArc
50
0
51
90
0
LINE
5
A2
100
AcDbEntity
8
visualization
6
ByLayer
62
256
370
-1
100
AcDbLine
10
-1.93
20
0.16625
11
-1.93
21
-0.18625
0
ARC
5
A3
100
AcDbEntity
8
visualization
6
ByLayer
62
256
370
-1
100
AcDbCircle
10
-1.83625
20
-0.18625
40
0.09375
100
AcDbArc
50
180
51
270
0
LINE
5
A4
100
AcDbEntity
8
visualization
6
ByLayer
62
256
370
-1
100
AcDbLine
10
-1.83625
20
-0.28
11
-1.56375
21
-0.28
0
LINE
5
A5
100
AcDbEntity
8
visualization
6
ByLayer
62
256
370
-1
100
AcDbLine
10
-1.47
20
0.16625
11
-1.47
21
-0.18625
0
ARC
5
A6
100
AcDbEntity
8
visualization
6
ByLayer
62
256
370
-1
100
AcDbCircle
10
-1.56375
20
-0.18625
40
0.09375
100
AcDbArc
50
270
51
360
0
ARC
5
A7
100
AcDbEntity
8
boundary
6
ByLayer
62
256
370
-1
100
AcDbCircle
10
-3.10625
20
0.40625
40
0.09375
100
AcDbArc
50
90
51
180
0
LINE
5
A8
100
AcDbEntity
8
boundary
6
ByLayer
62
256
370
-1
100
AcDbLine
10
-3.2
20
0.40625
11
-3.2
21
-0.40625
0
ARC
5
A9
100
AcDbEntity
8
boundary
6
ByLayer
62
256
370
-1
100
AcDbCircle
10
-3.10625
20
-0.40625
40
0.09375
100
AcDbArc
50
180
51
270
0
LINE
5
AA
100
AcDbEntity
8
boundary
6
ByLayer
62
256
370
-1
100
AcDbLine
10
-1.49375
20
-0.5
11
-3.10625
21
-0.5
0
ARC
5
AB
100
AcDbEntity
8
boundary
6
ByLayer
62
256
370
-1
100
AcDbCircle
10
-1.49375
20
-0.40625
40
0.09375
100
AcDbArc
50
270
51
360
0
LINE
5
AC
100
AcDbEntity
8
boundary
6
ByLayer
62
256
370
-1
100
AcDbLine
10
-1.4
20
0.40625
11
-1.4
21
-0.40625
0
LINE
5
AD
100
AcDbEntity
8
boundary
6
ByLayer
62
256
370
-1
100
AcDbLine
10
-1.49375
20
0.5
11
-3.10625
21
0.5
0
ARC
5
AE
100
AcDbEntity
8
boundary
6
ByLayer
62
256
370
-1
100
AcDbCircle
10
-1.49375
20
0.40625
40
0.09375
100
AcDbArc
50
0
51
90
0
CIRCLE
5
AF
100
AcDbEntity
8
visualization
6
ByLayer
62
256
370
-1
100
AcDbCircle
10
-2.64
20
-0.3
40
0.15
0
CIRCLE
5
B0
100
AcDbEntity
8
visualization
6
ByLayer
62
256
370
-1
100
AcDbCircle
10
-1.7
20
-0.01
40
0.15
0
CIRCLE
5
B1
100
AcDbEntity
8
mount drill
6
ByLayer
62
256
370
-1
100
AcDbCircle
10
-1.7
20
-0.01
40
0.085
0
CIRCLE
5
B2
100
AcDbEntity
8
mount drill
6
ByLayer
62
256
370
-1
100
AcDbCircle
10
-2.64
20
-0.3
40
0.085
0
CIRCLE
5
B3
100
AcDbEntity
8
4-40 tap holes
6
ByLayer
62
256
370
-1
100
AcDbCircle
10
0.8000003
20
0.400155
40
0.0445
0
CIRCLE
5
B4
100
AcDbEntity
8
4-40 tap holes
6
ByLayer
62
256
370
-1
100
AcDbCircle
10
0.799963
20
-0.399884
40
0.0445
0
CIRCLE
5
B5
100
AcDbEntity
8
4-40 tap holes
6
ByLayer
62
256
370
-1
100
AcDbCircle
10
-0.80003
20
0.400171
40
0.0445
0
CIRCLE
5
B6
100
AcDbEntity
8
4-40 tap holes
6
ByLayer
62
256
370
-1
100
AcDbCircle
10
-0.80003
20
-0.399895
40
0.0445
0
LINE
5
B7
100
AcDbEntity
8
resistor pocket
6
ByLayer
62
256
370
-1
100
AcDbLine
10
0.6
20
0.26
11
0.6
21
-0.28
0
LINE
5
B8
100
AcDbEntity
8
resistor pocket
6
ByLayer
62
256
370
-1
100
AcDbLine
10
0.83
20
-0.01
11
0.37
21
-0.01
0
LINE
5
B9
100
AcDbEntity
8
connector pocket
6
ByLayer
62
256
370
-1
100
AcDbLine
10
-0.45
20
0.02
11
-0.84
21
0.02
0
LINE
5
BA
100
AcDbEntity
8
connector pocket
6
ByLayer
62
256
370
-1
100
AcDbLine
10
-0.645
20
0.3
11
-0.645
21
-0.26
0
CIRCLE
5
BB
100
AcDbEntity
8
filter outer pocket
6
ByLayer
62
256
370
-1
100
AcDbCircle
10
-0.002022
20
0.152595
40
0.25
0
CIRCLE
5
BC
100
AcDbEntity
8
filter inner pocket
6
ByLayer
62
256
370
-1
100
AcDbCircle
10
-0.00202
20
0.152602
40
0.18
0
CIRCLE
5
BD
100
AcDbEntity
8
led pocket
6
ByLayer
62
256
370
-1
100
AcDbCircle
10
-0.002026
20
-0.249828
40
0.12
0
ARC
5
BE
100
AcDbEntity
8
visualization
6
ByLayer
62
256
370
-1
100
AcDbCircle
10
-0.74625
20
0.20625
40
0.09375
100
AcDbArc
50
90
51
180
0
LINE
5
BF
100
AcDbEntity
8
visualization
6
ByLayer
62
256
370
-1
100
AcDbLine
10
-0.74625
20
0.3
11
-0.54375
21
0.3
0
ARC
5
C0
100
AcDbEntity
8
visualization
6
ByLayer
62
256
370
-1
100
AcDbCircle
10
-0.54375
20
0.20625
40
0.09375
100
AcDbArc
50
0
51
90
0
LINE
5
C1
100
AcDbEntity
8
visualization
6
ByLayer
62
256
370
-1
100
AcDbLine
10
-0.45
20
-0.16625
11
-0.45
21
0.20625
0
ARC
5
C2
100
AcDbEntity
8
visualization
6
ByLayer
62
256
370
-1
100
AcDbCircle
10
-0.54375
20
-0.16625
40
0.09375
100
AcDbArc
50
270
51
0
0
LINE
5
C3
100
AcDbEntity
8
visualization
6
ByLayer
62
256
370
-1
100
AcDbLine
10
-0.74625
20
-0.26
11
-0.54375
21
-0.26
0
LINE
5
C4
100
AcDbEntity
8
visualization
6
ByLayer
62
256
370
-1
100
AcDbLine
10
-0.84
20
0.20625
11
-0.84
21
-0.16625
0
ARC
5
C5
100
AcDbEntity
8
visualization
6
ByLayer
62
256
370
-1
100
AcDbCircle
10
-0.74625
20
-0.16625
40
0.09375
100
AcDbArc
50
180
51
270
0
ARC
5
C6
100
AcDbEntity
8
visualization
6
ByLayer
62
256
370
-1
100
AcDbCircle
10
0.46375
20
0.16625
40
0.09375
100
AcDbArc
50
90
51
180
0
LINE
5
C7
100
AcDbEntity
8
visualization
6
ByLayer
62
256
370
-1
100
AcDbLine
10
0.46375
20
0.26
11
0.73625
21
0.26
0
ARC
5
C8
100
AcDbEntity
8
visualization
6
ByLayer
62
256
370
-1
100
AcDbCircle
10
0.73625
20
0.16625
40
0.09375
100
AcDbArc
50
0
51
90
0
LINE
5
C9
100
AcDbEntity
8
visualization
6
ByLayer
62
256
370
-1
100
AcDbLine
10
0.37
20
0.16625
11
0.37
21
-0.18625
0
ARC
5
CA
100
AcDbEntity
8
visualization
6
ByLayer
62
256
370
-1
100
AcDbCircle
10
0.46375
20
-0.18625
40
0.09375
100
AcDbArc
50
180
51
270
0
LINE
5
CB
100
AcDbEntity
8
visualization
6
ByLayer
62
256
370
-1
100
AcDbLine
10
0.46375
20
-0.28
11
0.73625
21
-0.28
0
LINE
5
CC
100
AcDbEntity
8
visualization
6
ByLayer
62
256
370
-1
100
AcDbLine
10
0.83
20
0.16625
11
0.83
21
-0.18625
0
ARC
5
CD
100
AcDbEntity
8
visualization
6
ByLayer
62
256
370
-1
100
AcDbCircle
10
0.73625
20
-0.18625
40
0.09375
100
AcDbArc
50
270
51
360
0
ARC
5
CE
100
AcDbEntity
8
boundary
6
ByLayer
62
256
370
-1
100
AcDbCircle
10
-0.80625
20
0.40625
40
0.09375
100
AcDbArc
50
90
51
180
0
LINE
5
CF
100
AcDbEntity
8
boundary
6
ByLayer
62
256
370
-1
100
AcDbLine
10
-0.9
20
0.40625
11
-0.9
21
-0.40625
0
ARC
5
D0
100
AcDbEntity
8
boundary
6
ByLayer
62
256
370
-1
100
AcDbCircle
10
-0.80625
20
-0.40625
40
0.09375
100
AcDbArc
50
180
51
270
0
LINE
5
D1
100
AcDbEntity
8
boundary
6
ByLayer
62
256
370
-1
100
AcDbLine
10
0.80625
20
-0.5
11
-0.80625
21
-0.5
0
ARC
5
D2
100
AcDbEntity
8
boundary
6
ByLayer
62
256
370
-1
100
AcDbCircle
10
0.80625
20
-0.40625
40
0.09375
100
AcDbArc
50
270
51
360
0
LINE
5
D3
100
AcDbEntity
8
boundary
6
ByLayer
62
256
370
-1
100
AcDbLine
10
0.9
20
0.40625
11
0.9
21
-0.40625
0
LINE
5
D4
100
AcDbEntity
8
boundary
6
ByLayer
62
256
370
-1
100
AcDbLine
10
0.80625
20
0.5
11
-0.80625
21
0.5
0
ARC
5
D5
100
AcDbEntity
8
boundary
6
ByLayer
62
256
370
-1
100
AcDbCircle
10
0.80625
20
0.40625
40
0.09375
100
AcDbArc
50
0
51
90
0
CIRCLE
5
D6
100
AcDbEntity
8
visualization
6
ByLayer
62
256
370
-1
100
AcDbCircle
10
-0.34
20
-0.3
40
0.15
0
CIRCLE
5
D7
100
AcDbEntity
8
visualization
6
ByLayer
62
256
370
-1
100
AcDbCircle
10
0.6
20
-0.01
40
0.15
0
CIRCLE
5
D8
100
AcDbEntity
8
mount drill
6
ByLayer
62
256
370
-1
100
AcDbCircle
10
0.6
20
-0.01
40
0.085
0
CIRCLE
5
D9
100
AcDbEntity
8
mount drill
6
ByLayer
62
256
370
-1
100
AcDbCircle
10
-0.34
20
-0.3
40
0.085
0
CIRCLE
5
DA
100
AcDbEntity
8
4-40 tap holes
6
ByLayer
62
256
370
-1
100
AcDbCircle
10
3.1000003
20
0.400155
40
0.0445
0
CIRCLE
5
DB
100
AcDbEntity
8
4-40 tap holes
6
ByLayer
62
256
370
-1
100
AcDbCircle
10
3.099963
20
-0.399884
40
0.0445
0
CIRCLE
5
DC
100
AcDbEntity
8
4-40 tap holes
6
ByLayer
62
256
370
-1
100
AcDbCircle
10
1.49997
20
0.400171
40
0.0445
0
CIRCLE
5
DD
100
AcDbEntity
8
4-40 tap holes
6
ByLayer
62
256
370
-1
100
AcDbCircle
10
1.49997
20
-0.399895
40
0.0445
0
LINE
5
DE
100
AcDbEntity
8
resistor pocket
6
ByLayer
62
256
370
-1
100
AcDbLine
10
2.9
20
0.26
11
2.9
21
-0.28
0
LINE
5
DF
100
AcDbEntity
8
resistor pocket
6
ByLayer
62
256
370
-1
100
AcDbLine
10
3.13
20
-0.01
11
2.67
21
-0.01
0
LINE
5
E0
100
AcDbEntity
8
connector pocket
6
ByLayer
62
256
370
-1
100
AcDbLine
10
1.85
20
0.02
11
1.46
21
0.02
0
LINE
5
E1
100
AcDbEntity
8
connector pocket
6
ByLayer
62
256
370
-1
100
AcDbLine
10
1.655
20
0.3
11
1.655
21
-0.26
0
CIRCLE
5
E2
100
AcDbEntity
8
filter outer pocket
6
ByLayer
62
256
370
-1
100
AcDbCircle
10
2.297978
20
0.152595
40
0.25
0
CIRCLE
5
E3
100
AcDbEntity
8
filter inner pocket
6
ByLayer
62
256
370
-1
100
AcDbCircle
10
2.29798
20
0.152602
40
0.18
0
CIRCLE
5
E4
100
AcDbEntity
8
led pocket
6
ByLayer
62
256
370
-1
100
AcDbCircle
10
2.297974
20
-0.249828
40
0.12
0
ARC
5
E5
100
AcDbEntity
8
visualization
6
ByLayer
62
256
370
-1
100
AcDbCircle
10
1.55375
20
0.20625
40
0.09375
100
AcDbArc
50
90
51
180
0
LINE
5
E6
100
AcDbEntity
8
visualization
6
ByLayer
62
256
370
-1
100
AcDbLine
10
1.55375
20
0.3
11
1.75625
21
0.3
0
ARC
5
E7
100
AcDbEntity
8
visualization
6
ByLayer
62
256
370
-1
100
AcDbCircle
10
1.75625
20
0.20625
40
0.09375
100
AcDbArc
50
0
51
90
0
LINE
5
E8
100
AcDbEntity
8
visualization
6
ByLayer
62
256
370
-1
100
AcDbLine
10
1.85
20
-0.16625
11
1.85
21
0.20625
0
ARC
5
E9
100
AcDbEntity
8
visualization
6
ByLayer
62
256
370
-1
100
AcDbCircle
10
1.75625
20
-0.16625
40
0.09375
100
AcDbArc
50
270
51
0
0
LINE
5
EA
100
AcDbEntity
8
visualization
6
ByLayer
62
256
370
-1
100
AcDbLine
10
1.55375
20
-0.26
11
1.75625
21
-0.26
0
LINE
5
EB
100
AcDbEntity
8
visualization
6
ByLayer
62
256
370
-1
100
AcDbLine
10
1.46
20
0.20625
11
1.46
21
-0.16625
0
ARC
5
EC
100
AcDbEntity
8
visualization
6
ByLayer
62
256
370
-1
100
AcDbCircle
10
1.55375
20
-0.16625
40
0.09375
100
AcDbArc
50
180
51
270
0
ARC
5
ED
100
AcDbEntity
8
visualization
6
ByLayer
62
256
370
-1
100
AcDbCircle
10
2.76375
20
0.16625
40
0.09375
100
AcDbArc
50
90
51
180
0
LINE
5
EE
100
AcDbEntity
8
visualization
6
ByLayer
62
256
370
-1
100
AcDbLine
10
2.76375
20
0.26
11
3.03625
21
0.26
0
ARC
5
EF
100
AcDbEntity
8
visualization
6
ByLayer
62
256
370
-1
100
AcDbCircle
10
3.03625
20
0.16625
40
0.09375
100
AcDbArc
50
0
51
90
0
LINE
5
F0
100
AcDbEntity
8
visualization
6
ByLayer
62
256
370
-1
100
AcDbLine
10
2.67
20
0.16625
11
2.67
21
-0.18625
0
ARC
5
F1
100
AcDbEntity
8
visualization
6
ByLayer
62
256
370
-1
100
AcDbCircle
10
2.76375
20
-0.18625
40
0.09375
100
AcDbArc
50
180
51
270
0
LINE
5
F2
100
AcDbEntity
8
visualization
6
ByLayer
62
256
370
-1
100
AcDbLine
10
2.76375
20
-0.28
11
3.03625
21
-0.28
0
LINE
5
F3
100
AcDbEntity
8
visualization
6
ByLayer
62
256
370
-1
100
AcDbLine
10
3.13
20
0.16625
11
3.13
21
-0.18625
0
ARC
5
F4
100
AcDbEntity
8
visualization
6
ByLayer
62
256
370
-1
100
AcDbCircle
10
3.03625
20
-0.18625
40
0.09375
100
AcDbArc
50
270
51
360
0
ARC
5
F5
100
AcDbEntity
8
boundary
6
ByLayer
62
256
370
-1
100
AcDbCircle
10
1.49375
20
0.40625
40
0.09375
100
AcDbArc
50
90
51
180
0
LINE
5
F6
100
AcDbEntity
8
boundary
6
ByLayer
62
256
370
-1
100
AcDbLine
10
1.4
20
0.40625
11
1.4
21
-0.40625
0
ARC
5
F7
100
AcDbEntity
8
boundary
6
ByLayer
62
256
370
-1
100
AcDbCircle
10
1.49375
20
-0.40625
40
0.09375
100
AcDbArc
50
180
51
270
0
LINE
5
F8
100
AcDbEntity
8
boundary
6
ByLayer
62
256
370
-1
100
AcDbLine
10
3.10625
20
-0.5
11
1.49375
21
-0.5
0
ARC
5
F9
100
AcDbEntity
8
boundary
6
ByLayer
62
256
370
-1
100
AcDbCircle
10
3.10625
20
-0.40625
40
0.09375
100
AcDbArc
50
270
51
360
0
LINE
5
FA
100
AcDbEntity
8
boundary
6
ByLayer
62
256
370
-1
100
AcDbLine
10
3.2
20
0.40625
11
3.2
21
-0.40625
0
LINE
5
FB
100
AcDbEntity
8
boundary
6
ByLayer
62
256
370
-1
100
AcDbLine
10
3.10625
20
0.5
11
1.49375
21
0.5
0
ARC
5
FC
100
AcDbEntity
8
boundary
6
ByLayer
62
256
370
-1
100
AcDbCircle
10
3.10625
20
0.40625
40
0.09375
100
AcDbArc
50
0
51
90
0
CIRCLE
5
FD
100
AcDbEntity
8
visualization
6
ByLayer
62
256
370
-1
100
AcDbCircle
10
1.96
20
-0.3
40
0.15
0
CIRCLE
5
FE
100
AcDbEntity
8
visualization
6
ByLayer
62
256
370
-1
100
AcDbCircle
10
2.9
20
-0.01
40
0.15
0
CIRCLE
5
FF
100
AcDbEntity
8
mount drill
6
ByLayer
62
256
370
-1
100
AcDbCircle
10
2.9
20
-0.01
40
0.085
0
CIRCLE
5
100
100
AcDbEntity
8
mount drill
6
ByLayer
62
256
370
-1
100
AcDbCircle
10
1.96
20
-0.3
40
0.085
0
CIRCLE
5
101
100
AcDbEntity
8
4-40 tap holes
6
ByLayer
62
256
370
-1
100
AcDbCircle
10
5.4000003
20
0.400155
40
0.0445
0
CIRCLE
5
102
100
AcDbEntity
8
4-40 tap holes
6
ByLayer
62
256
370
-1
100
AcDbCircle
10
5.399963
20
-0.399884
40
0.0445
0
CIRCLE
5
103
100
AcDbEntity
8
4-40 tap holes
6
ByLayer
62
256
370
-1
100
AcDbCircle
10
3.79997
20
0.400171
40
0.0445
0
CIRCLE
5
104
100
AcDbEntity
8
4-40 tap holes
6
ByLayer
62
256
370
-1
100
AcDbCircle
10
3.79997
20
-0.399895
40
0.0445
0
LINE
5
105
100
AcDbEntity
8
resistor pocket
6
ByLayer
62
256
370
-1
100
AcDbLine
10
5.2
20
0.26
11
5.2
21
-0.28
0
LINE
5
106
100
AcDbEntity
8
resistor pocket
6
ByLayer
62
256
370
-1
100
AcDbLine
10
5.43
20
-0.01
11
4.97
21
-0.01
0
LINE
5
107
100
AcDbEntity
8
connector pocket
6
ByLayer
62
256
370
-1
100
AcDbLine
10
4.15
20
0.02
11
3.76
21
0.02
0
LINE
5
108
100
AcDbEntity
8
connector pocket
6
ByLayer
62
256
370
-1
100
AcDbLine
10
3.955
20
0.3
11
3.955
21
-0.26
0
CIRCLE
5
109
100
AcDbEntity
8
filter outer pocket
6
ByLayer
62
256
370
-1
100
AcDbCircle
10
4.597978
20
0.152595
40
0.25
0
CIRCLE
5
10A
100
AcDbEntity
8
filter inner pocket
6
ByLayer
62
256
370
-1
100
AcDbCircle
10
4.59798
20
0.152602
40
0.18
0
CIRCLE
5
10B
100
AcDbEntity
8
led pocket
6
ByLayer
62
256
370
-1
100
AcDbCircle
10
4.597974
20
-0.249828
40
0.12
0
ARC
5
10C
100
AcDbEntity
8
visualization
6
ByLayer
62
256
370
-1
100
AcDbCircle
10
3.85375
20
0.20625
40
0.09375
100
AcDbArc
50
90
51
180
0
LINE
5
10D
100
AcDbEntity
8
visualization
6
ByLayer
62
256
370
-1
100
AcDbLine
10
3.85375
20
0.3
11
4.05625
21
0.3
0
ARC
5
10E
100
AcDbEntity
8
visualization
6
ByLayer
62
256
370
-1
100
AcDbCircle
10
4.05625
20
0.20625
40
0.09375
100
AcDbArc
50
0
51
90
0
LINE
5
10F
100
AcDbEntity
8
visualization
6
ByLayer
62
256
370
-1
100
AcDbLine
10
4.15
20
-0.16625
11
4.15
21
0.20625
0
ARC
5
110
100
AcDbEntity
8
visualization
6
ByLayer
62
256
370
-1
100
AcDbCircle
10
4.05625
20
-0.16625
40
0.09375
100
AcDbArc
50
270
51
0
0
LINE
5
111
100
AcDbEntity
8
visualization
6
ByLayer
62
256
370
-1
100
AcDbLine
10
3.85375
20
-0.26
11
4.05625
21
-0.26
0
LINE
5
112
100
AcDbEntity
8
visualization
6
ByLayer
62
256
370
-1
100
AcDbLine
10
3.76
20
0.20625
11
3.76
21
-0.16625
0
ARC
5
113
100
AcDbEntity
8
visualization
6
ByLayer
62
256
370
-1
100
AcDbCircle
10
3.85375
20
-0.16625
40
0.09375
100
AcDbArc
50
180
51
270
0
ARC
5
114
100
AcDbEntity
8
visualization
6
ByLayer
62
256
370
-1
100
AcDbCircle
10
5.06375
20
0.16625
40
0.09375
100
AcDbArc
50
90
51
180
0
LINE
5
115
100
AcDbEntity
8
visualization
6
ByLayer
62
256
370
-1
100
AcDbLine
10
5.06375
20
0.26
11
5.33625
21
0.26
0
ARC
5
116
100
AcDbEntity
8
visualization
6
ByLayer
62
256
370
-1
100
AcDbCircle
10
5.33625
20
0.16625
40
0.09375
100
AcDbArc
50
0
51
90
0
LINE
5
117
100
AcDbEntity
8
visualization
6
ByLayer
62
256
370
-1
100
AcDbLine
10
4.97
20
0.16625
11
4.97
21
-0.18625
0
ARC
5
118
100
AcDbEntity
8
visualization
6
ByLayer
62
256
370
-1
100
AcDbCircle
10
5.06375
20
-0.18625
40
0.09375
100
AcDbArc
50
180
51
270
0
LINE
5
119
100
AcDbEntity
8
visualization
6
ByLayer
62
256
370
-1
100
AcDbLine
10
5.06375
20
-0.28
11
5.33625
21
-0.28
0
LINE
5
11A
100
AcDbEntity
8
visualization
6
ByLayer
62
256
370
-1
100
AcDbLine
10
5.43
20
0.16625
11
5.43
21
-0.18625
0
ARC
5
11B
100
AcDbEntity
8
visualization
6
ByLayer
62
256
370
-1
100
AcDbCircle
10
5.33625
20
-0.18625
40
0.09375
100
AcDbArc
50
270
51
360
0
ARC
5
11C
100
AcDbEntity
8
boundary
6
ByLayer
62
256
370
-1
100
AcDbCircle
10
3.79375
20
0.40625
40
0.09375
100
AcDbArc
50
90
51
180
0
LINE
5
11D
100
AcDbEntity
8
boundary
6
ByLayer
62
256
370
-1
100
AcDbLine
10
3.7
20
0.40625
11
3.7
21
-0.40625
0
ARC
5
11E
100
AcDbEntity
8
boundary
6
ByLayer
62
256
370
-1
100
AcDbCircle
10
3.79375
20
-0.40625
40
0.09375
100
AcDbArc
50
180
51
270
0
LINE
5
11F
100
AcDbEntity
8
boundary
6
ByLayer
62
256
370
-1
100
AcDbLine
10
5.40625
20
-0.5
11
3.79375
21
-0.5
0
ARC
5
120
100
AcDbEntity
8
boundary
6
ByLayer
62
256
370
-1
100
AcDbCircle
10
5.40625
20
-0.40625
40
0.09375
100
AcDbArc
50
270
51
360
0
LINE
5
121
100
AcDbEntity
8
boundary
6
ByLayer
62
256
370
-1
100
AcDbLine
10
5.5
20
0.40625
11
5.5
21
-0.40625
0
LINE
5
122
100
AcDbEntity
8
boundary
6
ByLayer
62
256
370
-1
100
AcDbLine
10
5.40625
20
0.5
11
3.79375
21
0.5
0
ARC
5
123
100
AcDbEntity
8
boundary
6
ByLayer
62
256
370
-1
100
AcDbCircle
10
5.40625
20
0.40625
40
0.09375
100
AcDbArc
50
0
51
90
0
CIRCLE
5
124
100
AcDbEntity
8
visualization
6
ByLayer
62
256
370
-1
100
AcDbCircle
10
4.26
20
-0.3
40
0.15
0
CIRCLE
5
125
100
AcDbEntity
8
visualization
6
ByLayer
62
256
370
-1
100
AcDbCircle
10
5.2
20
-0.01
40
0.15
0
CIRCLE
5
126
100
AcDbEntity
8
mount drill
6
ByLayer
62
256
370
-1
100
AcDbCircle
10
5.2
20
-0.01
40
0.085
0
CIRCLE
5
127
100
AcDbEntity
8
mount drill
6
ByLayer
62
256
370
-1
100
AcDbCircle
10
4.26
20
-0.3
40
0.085
0
LINE
5
128
100
AcDbEntity
8

6
ByLayer
62
256
370
-1
100
AcDbLine
10
-5.9
20
0.9
11
5.9
21
0.9
0
LINE
5
129
100
AcDbEntity
8

6
ByLayer
62
256
370
-1
100
AcDbLine
10
5.9
20
0.9
11
5.9
21
-0.9
0
LINE
5
12A
100
AcDbEntity
8

6
ByLayer
62
256
370
-1
100
AcDbLine
10
5.9
20
-0.9
11
-5.9
21
-0.9
0
LINE
5
12B
100
AcDbEntity
8

6
ByLayer
62
256
370
-1
100
AcDbLine
10
-5.9
20
-0.9
11
-5.9
21
0.9
0
ENDSEC
0
SECTION
2
OBJECTS
0
DICTIONARY
5
C
330
0
100
AcDbDictionary
281
1
3
ACAD_GROUP
350
D
0
DICTIONARY
5
D
330
C
100
AcDbDictionary
281
1
0
ENDSEC
0
EOF
