999
dxflib 2.0.4.8
  0
SECTION
  2
HEADER
  9
$ACADVER
  1
AC1009
  9
$EXTMIN
 10
0.0
 20
0.0
 30
0.0
  9
$DIMASZ
 40
2.5
  9
$DIMGAP
 40
0.625
  9
$SPLFRAME
 70
1
  9
$FILLMODE
 70
0
  9
$EXTMAX
 10
1000.0
 20
1000.0
 30
0.0
  9
$DIMEXO
 40
0.625
  9
$DIMTXT
 40
2.5
  9
$DIMSTYLE
  2
Standard
  9
$PLIMMAX
 10
210.0
 20
297.0
  9
$PLIMMIN
 10
0.0
 20
0.0
  9
$DIMEXE
 40
1.25
  0
ENDSEC
  0
SECTION
  2
TABLES
  0
TABLE
  2
VPORT
 70
1
  0
VPORT
  2
*Active
 70
0
 10
0.0
 20
0.0
 11
1.0
 21
1.0
 12
286.3055555555554861
 22
148.5
 13
0.0
 23
0.0
 14
10.0
 24
10.0
 15
10.0
 25
10.0
 16
0.0
 26
0.0
 36
1.0
 17
0.0
 27
0.0
 37
0.0
 40
297.0
 41
1.92798353909465
 42
50.0
 43
0.0
 44
0.0
 50
0.0
 51
0.0
 71
0
 72
100
 73
1
 74
3
 75
1
 76
1
 77
0
 78
0
  0
ENDTAB
  0
TABLE
  2
LTYPE
 70
19
  0
LTYPE
  2
CONTINUOUS
 70
0
  3
Solid line
 72
65
 73
0
 40
0.0
  0
LTYPE
  2
DOT
 70
0
  3
Dot . . . . . . . . . . . . . . . . . . . . . .
 72
65
 73
2
 40
6.3499999999999996
 49
0.0
 49
-6.3499999999999996
  0
LTYPE
  2
DOT2
 70
0
  3
Dot (.5x) .....................................
 72
65
 73
2
 40
3.1749999999999998
 49
0.0
 49
-3.1749999999999998
  0
LTYPE
  2
DOTX2
 70
0
  3
Dot (2x) .  .  .  .  .  .  .  .  .  .  .  .  .
 72
65
 73
2
 40
12.6999999999999993
 49
0.0
 49
-12.6999999999999993
  0
LTYPE
  2
DASHED
 70
0
  3
Dashed __ __ __ __ __ __ __ __ __ __ __ __ __ _
 72
65
 73
2
 40
19.0500000000000007
 49
12.6999999999999993
 49
-6.3499999999999996
  0
LTYPE
  2
DASHED2
 70
0
  3
Dashed (.5x) _ _ _ _ _ _ _ _ _ _ _ _ _ _ _ _ _
 72
65
 73
2
 40
9.5250000000000004
 49
6.3499999999999996
 49
-3.1749999999999998
  0
LTYPE
  2
DASHEDX2
 70
0
  3
Dashed (2x) ____  ____  ____  ____  ____  ___
 72
65
 73
2
 40
38.1000000000000014
 49
25.3999999999999986
 49
-12.6999999999999993
  0
LTYPE
  2
DASHDOT
 70
0
  3
Dash dot __ . __ . __ . __ . __ . __ . __ . __
 72
65
 73
4
 40
25.3999999999999986
 49
12.6999999999999993
 49
-6.3499999999999996
 49
0.0
 49
-6.3499999999999996
  0
LTYPE
  2
DASHDOT2
 70
0
  3
Dash dot (.5x) _._._._._._._._._._._._._._._.
 72
65
 73
4
 40
12.6999999999999993
 49
6.3499999999999996
 49
-3.1749999999999998
 49
0.0
 49
-3.1749999999999998
  0
LTYPE
  2
DASHDOTX2
 70
0
  3
Dash dot (2x) ____  .  ____  .  ____  .  ___
 72
65
 73
4
 40
50.7999999999999972
 49
25.3999999999999986
 49
-12.6999999999999993
 49
0.0
 49
-12.6999999999999993
  0
LTYPE
  2
DIVIDE
 70
0
  3
Divide ____ . . ____ . . ____ . . ____ . . ____
 72
65
 73
6
 40
31.75
 49
12.6999999999999993
 49
-6.3499999999999996
 49
0.0
 49
-6.3499999999999996
 49
0.0
 49
-6.3499999999999996
  0
LTYPE
  2
DIVIDE2
 70
0
  3
Divide (.5x) __..__..__..__..__..__..__..__.._
 72
65
 73
6
 40
15.875
 49
6.3499999999999996
 49
-3.1749999999999998
 49
0.0
 49
-3.1749999999999998
 49
0.0
 49
-3.1749999999999998
  0
LTYPE
  2
DIVIDEX2
 70
0
  3
Divide (2x) ________  .  .  ________  .  .  _
 72
65
 73
6
 40
63.5
 49
25.3999999999999986
 49
-12.6999999999999993
 49
0.0
 49
-12.6999999999999993
 49
0.0
 49
-12.6999999999999993
  0
LTYPE
  2
CENTER
 70
0
  3
Center ____ _ ____ _ ____ _ ____ _ ____ _ ____
 72
65
 73
4
 40
50.7999999999999972
 49
31.75
 49
-6.3499999999999996
 49
6.3499999999999996
 49
-6.3499999999999996
  0
LTYPE
  2
CENTER2
 70
0
  3
Center (.5x) ___ _ ___ _ ___ _ ___ _ ___ _ ___
 72
65
 73
4
 40
28.5749999999999993
 49
19.0500000000000007
 49
-3.1749999999999998
 49
3.1749999999999998
 49
-3.1749999999999998
  0
LTYPE
  2
CENTERX2
 70
0
  3
Center (2x) ________  __  ________  __  _____
 72
65
 73
4
 40
101.5999999999999943
 49
63.5
 49
-12.6999999999999993
 49
12.6999999999999993
 49
-12.6999999999999993
  0
LTYPE
  2
BORDER
 70
0
  3
Border __ __ . __ __ . __ __ . __ __ . __ __ .
 72
65
 73
6
 40
44.4500000000000028
 49
12.6999999999999993
 49
-6.3499999999999996
 49
12.6999999999999993
 49
-6.3499999999999996
 49
0.0
 49
-6.3499999999999996
  0
LTYPE
  2
BORDER2
 70
0
  3
Border (.5x) __.__.__.__.__.__.__.__.__.__.__.
 72
65
 73
6
 40
22.2250000000000014
 49
6.3499999999999996
 49
-3.1749999999999998
 49
6.3499999999999996
 49
-3.1749999999999998
 49
0.0
 49
-3.1749999999999998
  0
LTYPE
  2
BORDERX2
 70
0
  3
Border (2x) ____  ____  .  ____  ____  .  ___
 72
65
 73
6
 40
88.9000000000000057
 49
25.3999999999999986
 49
-12.6999999999999993
 49
25.3999999999999986
 49
-12.6999999999999993
 49
0.0
 49
-12.6999999999999993
  0
ENDTAB
  0
TABLE
  2
LAYER
 70
11
  0
LAYER
  2
0
 70
0
 62
7
  6
CONTINUOUS
  0
LAYER
  2
4-40 tap holes
 70
0
 62
2
  6
CONTINUOUS
  0
LAYER
  2
boundary
 70
0
 62
3
  6
CONTINUOUS
  0
LAYER
  2
visualization
 70
0
 62
8
  6
CONTINUOUS
  0
LAYER
  2
resistor pocket
 70
0
 62
40
  6
CONTINUOUS
  0
LAYER
  2
connector pocket
 70
0
 62
211
  6
CONTINUOUS
  0
LAYER
  2
filter outer pocket
 70
0
 62
4
  6
CONTINUOUS
  0
LAYER
  2
filter inner pocket
 70
0
 62
5
  6
CONTINUOUS
  0
LAYER
  2
led pocket
 70
0
 62
6
  6
CONTINUOUS
  0
LAYER
  2
surface mill
 70
0
 62
9
  6
CONTINUOUS
  0
LAYER
  2
mount drill
 70
0
 62
1
  6
CONTINUOUS
  0
ENDTAB
  0
TABLE
  2
STYLE
 70
1
  0
STYLE
  2
Standard
 70
0
 40
0.0
 41
0.75
 50
0.0
 71
0
 42
2.5
  3
txt
  4

  0
ENDTAB
  0
TABLE
  2
VIEW
 70
0
  0
ENDTAB
  0
TABLE
  2
UCS
 70
0
  0
ENDTAB
  0
TABLE
  2
APPID
 70
1
  0
APPID
  2
ACAD
 70
0
  0
ENDTAB
  0
TABLE
  2
DIMSTYLE
 70
1
  0
DIMSTYLE
  2
Standard
  3

  4

  5

  6

  7

 40
1.0
 41
2.5
 42
0.625
 43
3.75
 44
1.25
 45
0.0
 46
0.0
 47
0.0
 48
0.0
 70
0
 71
0
 72
0
 73
0
 74
0
 75
0
 76
0
 77
1
 78
8
140
2.5
141
2.5
142
0.0
143
0.03937007874016
144
1.0
145
0.0
146
1.0
147
0.625
170
0
171
3
172
1
173
0
174
0
175
0
176
0
177
0
178
0
  0
ENDTAB
  0
ENDSEC
  0
SECTION
  2
BLOCKS
  0
ENDSEC
  0
SECTION
  2
ENTITIES
  0
LINE
  8
surface mill
 10
-0.5
 20
2.0
 30
0.0
 11
2.3999999999999999
 21
2.0
 31
0.0
  0
LINE
  8
surface mill
 10
2.3999999999999999
 20
2.0
 30
0.0
 11
2.3999999999999999
 21
-0.4000000000000001
 31
0.0
  0
LINE
  8
surface mill
 10
2.3999999999999999
 20
-0.4000000000000001
 30
0.0
 11
-0.5
 21
-0.4000000000000001
 31
0.0
  0
LINE
  8
surface mill
 10
-0.5
 20
-0.4000000000000001
 30
0.0
 11
-0.5
 21
2.0
 31
0.0
  0
CIRCLE
  8
4-40 tap holes
 10
1.7000002999999997
 20
0.9001549999999998
 30
0.0
 40
0.0445
  0
CIRCLE
  8
4-40 tap holes
 10
1.6999630000000003
 20
0.1001160000000005
 30
0.0
 40
0.0445
  0
CIRCLE
  8
4-40 tap holes
 10
0.09997
 20
0.9001710000000001
 30
0.0
 40
0.0445
  0
CIRCLE
  8
4-40 tap holes
 10
0.0999699999999994
 20
0.1001050000000006
 30
0.0
 40
0.0445
  0
LINE
  8
resistor pocket
 10
1.4999999999999998
 20
0.76
 30
0.0
 11
1.5
 21
0.2200000000000001
 31
0.0
  0
LINE
  8
resistor pocket
 10
1.73
 20
0.4900000000000003
 30
0.0
 11
1.27
 21
0.4900000000000002
 31
0.0
  0
LINE
  8
connector pocket
 10
0.4499999999999999
 20
0.5199999999999999
 30
0.0
 11
0.0599999999999995
 21
0.5200000000000002
 31
0.0
  0
LINE
  8
connector pocket
 10
0.2549999999999997
 20
0.8
 30
0.0
 11
0.2549999999999999
 21
0.2399999999999999
 31
0.0
  0
CIRCLE
  8
filter outer pocket
 10
0.8979779999999998
 20
0.652595
 30
0.0
 40
0.25
  0
CIRCLE
  8
filter inner pocket
 10
0.8979799999999999
 20
0.652602
 30
0.0
 40
0.18
  0
CIRCLE
  8
led pocket
 10
0.8979739999999994
 20
0.2501719999999999
 30
0.0
 40
0.12
  0
ARC
  8
visualization
 10
0.15375
 20
0.70625
 30
0.0
 40
0.09375
 50
90.0
 51
180.0
  0
LINE
  8
visualization
 10
0.15375
 20
0.8
 30
0.0
 11
0.35625
 21
0.8
 31
0.0
  0
ARC
  8
visualization
 10
0.35625
 20
0.70625
 30
0.0
 40
0.09375
 50
0.0
 51
90.0
  0
LINE
  8
visualization
 10
0.45
 20
0.33375
 30
0.0
 11
0.45
 21
0.70625
 31
0.0
  0
ARC
  8
visualization
 10
0.35625
 20
0.33375
 30
0.0
 40
0.09375
 50
270.0
 51
0.0
  0
LINE
  8
visualization
 10
0.15375
 20
0.24
 30
0.0
 11
0.35625
 21
0.24
 31
0.0
  0
LINE
  8
visualization
 10
0.06
 20
0.70625
 30
0.0
 11
0.06
 21
0.33375
 31
0.0
  0
ARC
  8
visualization
 10
0.15375
 20
0.33375
 30
0.0
 40
0.09375
 50
180.0
 51
270.0
  0
ARC
  8
visualization
 10
1.36375
 20
0.66625
 30
0.0
 40
0.09375
 50
90.0
 51
180.0
  0
LINE
  8
visualization
 10
1.36375
 20
0.76
 30
0.0
 11
1.6362500000000002
 21
0.76
 31
0.0
  0
ARC
  8
visualization
 10
1.6362500000000002
 20
0.66625
 30
0.0
 40
0.09375
 50
0.0
 51
90.0
  0
LINE
  8
visualization
 10
1.27
 20
0.66625
 30
0.0
 11
1.27
 21
0.3137499999999999
 31
0.0
  0
ARC
  8
visualization
 10
1.36375
 20
0.3137499999999999
 30
0.0
 40
0.09375
 50
180.0
 51
270.0
  0
LINE
  8
visualization
 10
1.36375
 20
0.22
 30
0.0
 11
1.63625
 21
0.22
 31
0.0
  0
LINE
  8
visualization
 10
1.7300000000000002
 20
0.66625
 30
0.0
 11
1.73
 21
0.3137499999999999
 31
0.0
  0
ARC
  8
visualization
 10
1.63625
 20
0.31375
 30
0.0
 40
0.09375
 50
270.0
 51
360.0
  0
ARC
  8
boundary
 10
0.0937500000000026
 20
0.9062499999999997
 30
0.0
 40
0.09375
 50
89.9999999999999432
 51
180.0
  0
LINE
  8
boundary
 10
0.0000000000000026
 20
0.9062499999999997
 30
0.0
 11
0.0000000000000028
 21
0.0937500000000002
 31
0.0
  0
ARC
  8
boundary
 10
0.0937500000000028
 20
0.0937500000000002
 30
0.0
 40
0.09375
 50
180.0
 51
270.0000000000001137
  0
LINE
  8
boundary
 10
1.7062499999999998
 20
0.0000000000000004
 30
0.0
 11
0.0937500000000029
 21
0.0000000000000002
 31
0.0
  0
ARC
  8
boundary
 10
1.7062499999999998
 20
0.0937500000000004
 30
0.0
 40
0.09375
 50
270.0
 51
360.0
  0
LINE
  8
boundary
 10
1.7999999999999998
 20
0.9062499999999996
 30
0.0
 11
1.7999999999999998
 21
0.0937500000000003
 31
0.0
  0
LINE
  8
boundary
 10
1.7062499999999998
 20
0.9999999999999996
 30
0.0
 11
0.0937500000000027
 21
0.9999999999999997
 31
0.0
  0
ARC
  8
boundary
 10
1.7062499999999998
 20
0.9062499999999996
 30
0.0
 40
0.09375
 50
0.0
 51
90.0
  0
CIRCLE
  8
visualization
 10
0.5600000000000001
 20
0.2
 30
0.0
 40
0.15
  0
CIRCLE
  8
visualization
 10
1.5
 20
0.49
 30
0.0
 40
0.15
  0
CIRCLE
  8
mount drill
 10
1.5
 20
0.49
 30
0.0
 40
0.085
  0
CIRCLE
  8
mount drill
 10
0.5600000000000001
 20
0.2
 30
0.0
 40
0.085
  0
ENDSEC
  0
EOF
